<svg id="Layer_1" data-name="Layer 1" xmlns="http://www.w3.org/2000/svg" viewBox="0 0 1600 960"><defs><style>.cls-1{fill:#fccc6f;stroke:#e07c05;stroke-miterlimit:10;stroke-width:2.68px;}.cls-2{fill:#5a2a82;}.cls-3{fill:#a986bf;}.cls-4{fill:#231f20;}.cls-5{fill:#fff;}</style></defs><path class="cls-1" d="M1182.92,140.19s-100.58.93-170.26-6c-114.2-11.4-211-72.87-221.22-79.58V54l-.45.3-.45-.3v.59c-10.27,6.71-107,68.18-221.23,79.58-69.67,7-170.26,6-170.26,6s-6.39,340,74.45,493.06c106.22,201.14,302.17,264,317,268.56v.27L791,902l.45.13v-.27c14.86-4.52,210.81-67.42,317-268.56C1189.31,480.17,1182.92,140.19,1182.92,140.19Z"/><path class="cls-2" d="M436.18,337.58a156.53,156.53,0,0,1,196.65,18L630,295.67l70.22-3.31-1.06-1.23A248.93,248.93,0,0,0,372.29,269.7L368.07,333Z"/><path class="cls-2" d="M397.29,561.18A156.58,156.58,0,0,1,421.3,349l-66.36-4.43,4.28-64.12a249,249,0,0,0-30.5,343.21l65.23,3.3Z"/><path class="cls-3" d="M947.46,357.25a156.49,156.49,0,0,1,206.87-13.48l60.13-5.92-6.86-69.75a249,249,0,0,0-326.85,25.12l-.85,1,68.5,1.05Z"/><path class="cls-3" d="M1167.21,354.89a156.6,156.6,0,0,1,12.3,212.92l3.14,62,68.37-3.46a249,249,0,0,0-30-347.47l6.89,70Z"/><path class="cls-2" d="M627,585.71A156.54,156.54,0,0,1,408.93,575.1l-3.29,64.75-65.85-3.33a248.94,248.94,0,0,0,349.34,17.66l.47-68Z"/><path class="cls-3" d="M1167.8,580.44a156.52,156.52,0,0,1-209.46,8.18l-71,.5.43,60.38a249,249,0,0,0,351.86-10.19L1171,642.78Z"/><path class="cls-2" d="M882.49,501.81l-92.27-106.4-.18.19-80.38-92.75L642.07,306,645,368.62l.78.91c.55.69,1.07,1.41,1.6,2.12l81.12,94.63-.44.51L789.81,538l.28-.33L845,601.57l29.2,33.67.32.34-.42-60.07,70.33-.5A157.39,157.39,0,0,1,928,554.83Z"/><path class="cls-3" d="M790.24,538.67l.33.38,62.09-71.14-.51-.6,79-92.16c1-1.37,2-2.72,3.08-4.06l1-64.06-64.91-1L638.84,573.12l62.49.44-.47,68.29,52.77-60.46Z"/><path class="cls-4" d="M456.55,500.55V445.39h17a25.85,25.85,0,0,1,13,3.27,23,23,0,0,1,9,9.32,28.85,28.85,0,0,1,3.22,13.74v2.54a28.81,28.81,0,0,1-3.17,13.67,22.69,22.69,0,0,1-8.92,9.29,26,26,0,0,1-13,3.33Zm11.36-46v36.83h5.5q6.66,0,10.19-4.36t3.6-12.46v-2.92q0-8.42-3.49-12.75t-10.19-4.34Z"/><path class="cls-4" d="M525.12,501.31q-9,0-14.68-5.53T504.78,481V480a24.68,24.68,0,0,1,2.39-11.05,17.54,17.54,0,0,1,6.76-7.5,19,19,0,0,1,10-2.63q8.42,0,13.24,5.3t4.83,15v4.47h-26.1a10.13,10.13,0,0,0,3.2,6.44,9.67,9.67,0,0,0,6.76,2.43,11.83,11.83,0,0,0,9.89-4.58l5.38,6a16.42,16.42,0,0,1-6.67,5.44A21.88,21.88,0,0,1,525.12,501.31Zm-1.25-33.68a6.83,6.83,0,0,0-5.28,2.2,11.45,11.45,0,0,0-2.6,6.32h15.23v-.88a8.14,8.14,0,0,0-2-5.65A7,7,0,0,0,523.87,467.63Z"/><path class="cls-4" d="M563.05,487.18l7.61-27.62h11.45l-13.83,41H557.82l-13.83-41h11.44Z"/><path class="cls-4" d="M1026.33,474.22a33.28,33.28,0,0,1-2.88,14.28,21.7,21.7,0,0,1-8.24,9.47,24.32,24.32,0,0,1-24.53,0,21.88,21.88,0,0,1-8.34-9.41,32.28,32.28,0,0,1-3-14.08v-2.73a33.24,33.24,0,0,1,2.93-14.34,21.91,21.91,0,0,1,8.3-9.51,24.34,24.34,0,0,1,24.51,0,21.84,21.84,0,0,1,8.3,9.51,33,33,0,0,1,2.94,14.31Zm-11.52-2.5q0-8.69-3.11-13.19a11,11,0,0,0-17.69,0q-3.1,4.44-3.14,13v2.69q0,8.44,3.1,13.11a10.11,10.11,0,0,0,8.94,4.66,10,10,0,0,0,8.79-4.49q3.07-4.5,3.11-13.09Z"/><path class="cls-4" d="M1070.77,480.43q0,9.48-4.3,15.18a13.79,13.79,0,0,1-11.61,5.7,12.76,12.76,0,0,1-10-4.32v19.32h-11V459.56H1044l.38,4a12.87,12.87,0,0,1,10.38-4.77q7.58,0,11.78,5.61t4.21,15.45Zm-11-.79q0-5.73-2-8.83a6.6,6.6,0,0,0-5.89-3.11q-5.14,0-7.08,3.94v16.79c1.34,2.7,3.72,4.05,7.16,4.05Q1059.83,492.48,1059.82,479.64Z"/><path class="cls-4" d="M1099.75,489.22a3.51,3.51,0,0,0-2-3.16,22.6,22.6,0,0,0-6.38-2.07q-14.62-3.06-14.62-12.42a11.29,11.29,0,0,1,4.52-9.12q4.53-3.65,11.84-3.65,7.82,0,12.49,3.67a11.59,11.59,0,0,1,4.68,9.55h-11a5.3,5.3,0,0,0-1.52-3.88,6.38,6.38,0,0,0-4.73-1.54,6.59,6.59,0,0,0-4.29,1.25,4,4,0,0,0-1.51,3.19A3.36,3.36,0,0,0,1089,474a17.58,17.58,0,0,0,5.82,1.93,48.51,48.51,0,0,1,6.89,1.84q8.68,3.18,8.68,11a10.69,10.69,0,0,1-4.81,9.07q-4.81,3.46-12.43,3.47a21.64,21.64,0,0,1-9.15-1.84,15.33,15.33,0,0,1-6.27-5,11.73,11.73,0,0,1-2.27-6.91h10.38A5.72,5.72,0,0,0,1088,492a8.6,8.6,0,0,0,5.38,1.55,7.94,7.94,0,0,0,4.75-1.19A3.71,3.71,0,0,0,1099.75,489.22Z"/><path class="cls-5" d="M700.75,363.82a13.14,13.14,0,0,1-7.63,3.7A8.07,8.07,0,0,1,684.6,359l-7.8,7-3.3-3.69,22.77-20.34,3,3.41L697.77,347a7.29,7.29,0,0,1,5.93,2.66,7.51,7.51,0,0,1,2,6.72c-.47,2.48-2,4.9-4.69,7.27Zm-3-4a9,9,0,0,0,3-4.47,4.25,4.25,0,0,0-1.06-4.09,4.54,4.54,0,0,0-4.77-1.58l-7.3,6.51a4.6,4.6,0,0,0,1,5,4.29,4.29,0,0,0,3.89,1.49A10.16,10.16,0,0,0,697.78,359.85Z"/><path class="cls-5" d="M699,378.06l-3.29-3.69L719,353.52l3.3,3.69Z"/><path class="cls-5" d="M711.36,391.91a7.91,7.91,0,0,1,1.16-1.8,7.72,7.72,0,0,1-5.7-2.67,7.85,7.85,0,0,1-2.2-5.31,6.05,6.05,0,0,1,2.1-4.68,6.27,6.27,0,0,1,5.78-1.66q3.15.7,6.4,4.33l2,2.27,1.08-1a3.85,3.85,0,0,0,1.41-2.54,3.81,3.81,0,0,0-1.18-2.85,4.3,4.3,0,0,0-2.47-1.51,2.63,2.63,0,0,0-2.33.63l-3.3-3.69a5.44,5.44,0,0,1,3.33-1.37,8.06,8.06,0,0,1,4,.79,11.48,11.48,0,0,1,3.74,2.85,9.27,9.27,0,0,1,2.67,5.9,7,7,0,0,1-2.51,5.41L718,391.66a11.26,11.26,0,0,0-3,3.79l-.26.23Zm-1-6.43a5.63,5.63,0,0,0,2.37,1.58,4.75,4.75,0,0,0,2.73.18l3.1-2.77-1.78-2a7.35,7.35,0,0,0-3.47-2.44,3.09,3.09,0,0,0-3,.77,2.88,2.88,0,0,0-1.06,2.22A3.65,3.65,0,0,0,710.4,385.48Z"/><path class="cls-5" d="M737.14,387.66l-1.81,1.8a8,8,0,0,1,6.48,2.82q4.59,5.14-1.21,10.49l-10.87,9.7-3.3-3.69,10.66-9.52a4.53,4.53,0,0,0,1.71-2.74,3.84,3.84,0,0,0-1.22-2.89,4.79,4.79,0,0,0-5-1.52l-11.7,10.45-3.3-3.69L734,384.18Z"/><path class="cls-4" d="M1003.16,279a13.06,13.06,0,0,1,.33-8.51,7.59,7.59,0,0,1,5.41-4.52,7.2,7.2,0,0,1,6.09,1l-2.72-11,4.81-1.19,7.52,30.38-4.35,1.08-.79-2.16a7.3,7.3,0,0,1-5.11,4,7.54,7.54,0,0,1-6.83-1.52Q1004.45,284.17,1003.16,279Zm4.91-.77a9.26,9.26,0,0,0,2.51,4.78,4.2,4.2,0,0,0,4,.95,4.69,4.69,0,0,0,3.66-3.7l-2.26-9.14a4.59,4.59,0,0,0-4.91-1.51,4.18,4.18,0,0,0-3.14,2.74A10.15,10.15,0,0,0,1008.07,278.2Z"/><path class="cls-4" d="M1038.53,283.63a10.28,10.28,0,0,1-7.94-2,10.77,10.77,0,0,1-3.89-7.48l-.07-.6a13.14,13.14,0,0,1,.53-6,9.69,9.69,0,0,1,3-4.46,9.54,9.54,0,0,1,4.92-2.07,8.68,8.68,0,0,1,7.26,2q2.79,2.55,3.45,7.77l.25,2-14.3,1.79a6.65,6.65,0,0,0,2.35,4.06,5.48,5.48,0,0,0,4.19,1.08,6.7,6.7,0,0,0,5.16-3.42l3,2.19a9,9,0,0,1-3.13,3.49A11.15,11.15,0,0,1,1038.53,283.63ZM1035.59,265a4.13,4.13,0,0,0-3.09,1.82,7.42,7.42,0,0,0-1.09,4.14l9.36-1.17,0-.37a6,6,0,0,0-1.78-3.56A4.11,4.11,0,0,0,1035.59,265Z"/><path class="cls-4" d="M1069.52,271a13.08,13.08,0,0,1-2.26,8.18,8.08,8.08,0,0,1-12,.75l.08,10.45-5,0-.23-30.53,4.56,0,.23,2.24a7.27,7.27,0,0,1,5.91-2.7,7.53,7.53,0,0,1,6.35,3c1.54,2,2.33,4.77,2.35,8.33Zm-4.93-.4a9.24,9.24,0,0,0-1.35-5.22,4.28,4.28,0,0,0-3.78-1.91,4.55,4.55,0,0,0-4.34,2.54l.07,9.78a4.61,4.61,0,0,0,4.42,2.54,4.29,4.29,0,0,0,3.69-1.94Q1064.62,274.51,1064.59,270.62Z"/><path class="cls-4" d="M1078.38,282.68l-4.94-.39,2.48-31.21,4.94.39Z"/><path class="cls-4" d="M1084.13,271.74a12.87,12.87,0,0,1,2.24-5.54,9.35,9.35,0,0,1,4.22-3.34,10.09,10.09,0,0,1,5.49-.49,9.63,9.63,0,0,1,6.67,4,11.31,11.31,0,0,1,1.7,8l-.17,1.15a13.11,13.11,0,0,1-2.21,5.54,9.2,9.2,0,0,1-4.19,3.32,10.19,10.19,0,0,1-5.55.49,9.53,9.53,0,0,1-6.85-4.3,11.92,11.92,0,0,1-1.39-8.64Zm4.81,1.25a9,9,0,0,0,.5,5.49,4.92,4.92,0,0,0,7.72,1.26,9.76,9.76,0,0,0,2.32-5.41,8.78,8.78,0,0,0-.53-5.47,4.6,4.6,0,0,0-3.53-2.57,4.55,4.55,0,0,0-4.11,1.25C1090.15,268.65,1089.37,270.47,1088.94,273Z"/><path class="cls-4" d="M1114.83,282.33l8.41-13.16,5.07,1.44-15.38,22q-3.47,4.8-8.11,3.48a9.17,9.17,0,0,1-2.19-1l1.06-3.7.88.31a4.87,4.87,0,0,0,2.9.12,4.55,4.55,0,0,0,2.07-1.8l1.2-1.62-1.44-23.22,5.13,1.47Z"/><path class="cls-4" d="M1253.58,415.9a13,13,0,0,1,6,0,9.29,9.29,0,0,1,4.69,2.62,10.25,10.25,0,0,1,2.55,4.9,9.61,9.61,0,0,1-1.19,7.7,11.27,11.27,0,0,1-6.76,4.63l-1.13.28a13.21,13.21,0,0,1-6,.07,9.26,9.26,0,0,1-4.67-2.61,10.23,10.23,0,0,1-2.57-4.95,9.51,9.51,0,0,1,1.37-8,11.84,11.84,0,0,1,7.45-4.57Zm.68,4.93a8.83,8.83,0,0,0-4.88,2.55,4.9,4.9,0,0,0,1.77,7.62,9.86,9.86,0,0,0,5.89.08,8.72,8.72,0,0,0,4.85-2.58,4.59,4.59,0,0,0,1-4.24,4.54,4.54,0,0,0-2.74-3.32C1258.73,420.29,1256.75,420.26,1254.26,420.83Z"/><path class="cls-4" d="M1260.4,459.78a13.16,13.16,0,0,1-8.36-1.47,8.08,8.08,0,0,1-1.9-11.91l-10.4,1.07-.51-4.92,30.37-3.14.47,4.54-2.21.43a7.27,7.27,0,0,1,3.25,5.63,7.53,7.53,0,0,1-2.34,6.6c-1.84,1.73-4.53,2.77-8.07,3.14Zm-.08-4.95a9.15,9.15,0,0,0,5.07-1.85,4.24,4.24,0,0,0,1.54-3.94A4.57,4.57,0,0,0,1264,445l-9.73,1a4.61,4.61,0,0,0-2.1,4.65,4.28,4.28,0,0,0,2.27,3.48A10.15,10.15,0,0,0,1260.32,454.83Z"/><path class="cls-4" d="M1249.18,474a10.19,10.19,0,0,1,3.07-7.58,10.75,10.75,0,0,1,7.94-2.82h.61a13.13,13.13,0,0,1,5.88,1.36,9.63,9.63,0,0,1,4,3.63,9.39,9.39,0,0,1,1.38,5.16,8.63,8.63,0,0,1-3,6.91q-2.91,2.42-8.17,2.35l-2,0,.2-14.41a6.62,6.62,0,0,0-4.35,1.76,5.49,5.49,0,0,0-1.64,4,6.7,6.7,0,0,0,2.67,5.58l-2.59,2.63a8.85,8.85,0,0,1-3-3.58A10.94,10.94,0,0,1,1249.18,474Zm18.9-.32a4.23,4.23,0,0,0-1.38-3.31,7.44,7.44,0,0,0-4-1.66l-.13,9.44h.37a6,6,0,0,0,3.78-1.27A4.14,4.14,0,0,0,1268.08,473.64Z"/><path class="cls-4" d="M1265.2,499.35a11.67,11.67,0,0,0,.38-2q.38-3.39-2.1-4.84l-15-1.63L1249,486l21.92,2.39-.51,4.7-2.47-.15a5.58,5.58,0,0,1,2.32,5.26,4.7,4.7,0,0,1-.47,1.71Z"/><path class="cls-4" d="M1245,512.22a7.54,7.54,0,0,1,2.13-.15,7.72,7.72,0,0,1-1.27-6.16,7.81,7.81,0,0,1,2.93-4.94,6.07,6.07,0,0,1,5-1.13,6.28,6.28,0,0,1,4.79,3.64c.88,2,1,4.54.36,7.72l-.6,3,1.41.29a3.46,3.46,0,0,0,4.47-3,4.4,4.4,0,0,0-.28-2.89,2.6,2.6,0,0,0-1.89-1.48l1-4.86a5.57,5.57,0,0,1,3.09,1.85,8.16,8.16,0,0,1,1.78,3.7,11.64,11.64,0,0,1,0,4.7,9.3,9.3,0,0,1-3.14,5.67,6.91,6.91,0,0,1-5.83,1.23l-9.75-2a11.21,11.21,0,0,0-4.82-.13l-.34-.07Zm4.57-4.62a5.71,5.71,0,0,0,.15,2.84,4.85,4.85,0,0,0,1.49,2.29l4.08.83.53-2.62a7.37,7.37,0,0,0-.12-4.25,3.08,3.08,0,0,0-2.38-1.89,2.87,2.87,0,0,0-2.41.48A3.65,3.65,0,0,0,1249.54,507.6Z"/><path class="cls-4" d="M1267.29,534.56l-5.13-1.55-1.12,3.73-3.52-1.06,1.12-3.73-11.78-3.55a2.67,2.67,0,0,0-1.89,0,2.26,2.26,0,0,0-1,1.54,7.47,7.47,0,0,0-.31,1.72l-3.67-1.11a12,12,0,0,1,.5-3.25q1.63-5.47,7.67-3.65l12,3.6,1-3.47,3.51,1.06-1,3.47,5.13,1.55Z"/><path class="cls-4" d="M1235,542.22a10.24,10.24,0,0,1,5.61-6,10.76,10.76,0,0,1,8.42.25l.57.23a13.28,13.28,0,0,1,5,3.4A9.78,9.78,0,0,1,1257,545a9.45,9.45,0,0,1-.59,5.31,8.64,8.64,0,0,1-5.27,5.37q-3.58,1.2-8.46-.78l-1.85-.75,5.41-13.35a6.55,6.55,0,0,0-4.69.07,5.46,5.46,0,0,0-3,3.13,6.72,6.72,0,0,0,.47,6.17l-3.36,1.52a8.94,8.94,0,0,1-1.52-4.43A11.07,11.07,0,0,1,1235,542.22Zm17.73,6.55a4.17,4.17,0,0,0-.09-3.59,7.45,7.45,0,0,0-3.08-3L1246,551l.34.14a6,6,0,0,0,4,.18A4.14,4.14,0,0,0,1252.72,548.77Z"/><path class="cls-4" d="M975.6,644.61l-.65,2.21a7.92,7.92,0,0,1,6.9-.38q4.15,1.5,4.54,5.24a7.8,7.8,0,0,1,7.51-.88q3.44,1.25,4.42,3.75a8.85,8.85,0,0,1-.31,6.21l-4.93,13.63-4.66-1.69,4.88-13.49a4.37,4.37,0,0,0,.19-3.2,4,4,0,0,0-2.52-2,4.19,4.19,0,0,0-2.91-.09,4.79,4.79,0,0,0-2.21,1.73l-5.13,14.22-4.66-1.68L981,654.58q1.23-3.69-2.41-5a4.36,4.36,0,0,0-4.79.84l-5.44,15-4.66-1.69L971.21,643Z"/><path class="cls-4" d="M1002,664.9a13.14,13.14,0,0,1,2.48-5.44,9.29,9.29,0,0,1,4.36-3.15,10.12,10.12,0,0,1,5.51-.26,9.66,9.66,0,0,1,6.49,4.33,11.34,11.34,0,0,1,1.35,8.08l-.22,1.14a13.3,13.3,0,0,1-2.44,5.44,9.39,9.39,0,0,1-4.34,3.14,10.33,10.33,0,0,1-5.57.25,9.54,9.54,0,0,1-6.65-4.6,11.88,11.88,0,0,1-1-8.69Zm4.76,1.45a8.92,8.92,0,0,0,.26,5.51,4.58,4.58,0,0,0,3.43,2.7,4.51,4.51,0,0,0,4.22-1.1,9.79,9.79,0,0,0,2.56-5.31,8.69,8.69,0,0,0-.3-5.48,4.57,4.57,0,0,0-3.41-2.73,4.51,4.51,0,0,0-4.16,1.08A9.63,9.63,0,0,0,1006.72,666.35Z"/><path class="cls-4" d="M1032.6,659.59l-.12,2.55a7.93,7.93,0,0,1,6.69-2.28q6.86.71,6.16,8.56l-1.48,14.5-4.93-.51,1.46-14.21a4.53,4.53,0,0,0-.59-3.19,3.8,3.8,0,0,0-2.84-1.3,4.76,4.76,0,0,0-4.72,2.24l-1.6,15.61-4.93-.51,2.26-21.93Z"/><path class="cls-4" d="M1055.59,683.21l-4.95-.12.54-22.05,5,.13Zm-4.57-27.9a2.56,2.56,0,0,1,.77-1.87,3.2,3.2,0,0,1,4.14.1,2.77,2.77,0,0,1-.09,3.76,2.81,2.81,0,0,1-2.1.69,2.75,2.75,0,0,1-2-.8A2.53,2.53,0,0,1,1051,655.31Z"/><path class="cls-4" d="M1067.35,655.65l.17,5.36,3.89-.13.12,3.67-3.9.12L1068,677a2.68,2.68,0,0,0,.56,1.8,2.3,2.3,0,0,0,1.8.51,8,8,0,0,0,1.72-.26l.13,3.83a12,12,0,0,1-3.25.57q-5.7.18-5.9-6.11l-.4-12.49-3.62.11-.12-3.66,3.63-.12-.17-5.35Z"/><path class="cls-4" d="M1074.57,671.68a13.11,13.11,0,0,1,.61-5.94,9.37,9.37,0,0,1,3.13-4.38,10.09,10.09,0,0,1,5.14-2,9.6,9.6,0,0,1,7.53,2,11.3,11.3,0,0,1,3.86,7.22l.15,1.16a13,13,0,0,1-.58,5.93,9.22,9.22,0,0,1-3.11,4.36,10.21,10.21,0,0,1-5.19,2,9.57,9.57,0,0,1-7.78-2.23,12,12,0,0,1-3.73-7.91Zm5-.14a8.89,8.89,0,0,0,2,5.14,4.56,4.56,0,0,0,4.11,1.46,4.5,4.5,0,0,0,3.65-2.39,9.84,9.84,0,0,0,.73-5.85,8.76,8.76,0,0,0-2-5.1,4.59,4.59,0,0,0-4.1-1.49,4.54,4.54,0,0,0-3.61,2.35A9.62,9.62,0,0,0,1079.54,671.54Z"/><path class="cls-4" d="M1109.73,659.86a11.72,11.72,0,0,0-2,.24c-2.22.46-3.55,1.62-4,3.48l3,14.77-4.85,1-4.42-21.61,4.63-1,.62,2.4a5.54,5.54,0,0,1,4.29-3.81,4.59,4.59,0,0,1,1.78-.08Z"/><path class="cls-5" d="M489.42,648l-.88,5.29,3.84.63-.6,3.62-3.84-.63-2,12.14a2.74,2.74,0,0,0,.19,1.88,2.35,2.35,0,0,0,1.67.85,7.76,7.76,0,0,0,1.74.08l-.62,3.78a12.37,12.37,0,0,1-3.29-.07q-5.64-.93-4.61-7.15l2.05-12.32-3.58-.6.6-3.61,3.58.59.87-5.29Z"/><path class="cls-5" d="M503.86,677.54a10.21,10.21,0,0,1-7.4-3.51,10.79,10.79,0,0,1-2.34-8.09l.05-.61a13.17,13.17,0,0,1,1.7-5.79,9.71,9.71,0,0,1,3.86-3.77A9.43,9.43,0,0,1,505,654.7a8.67,8.67,0,0,1,6.73,3.37q2.23,3,1.86,8.29l-.15,2L499,667.3a6.61,6.61,0,0,0,1.51,4.44,5.44,5.44,0,0,0,3.89,1.88,6.67,6.67,0,0,0,5.73-2.34l2.48,2.74a9,9,0,0,1-3.75,2.8A11,11,0,0,1,503.86,677.54Zm.79-18.88a4.19,4.19,0,0,0-3.39,1.18,7.39,7.39,0,0,0-1.88,3.85l9.41.69,0-.37a6,6,0,0,0-1.05-3.85A4.14,4.14,0,0,0,504.65,658.66Z"/><path class="cls-5" d="M530.72,671.32a2.22,2.22,0,0,0-1.17-2,11.68,11.68,0,0,0-3.66-1.08,18.69,18.69,0,0,1-4.27-1.18q-3.78-1.65-3.91-5.05a5.89,5.89,0,0,1,2.22-4.86,9.47,9.47,0,0,1,6-2.15,9.93,9.93,0,0,1,6.46,1.71,6.21,6.21,0,0,1,2.63,5l-4.95.2a3.09,3.09,0,0,0-1.15-2.34,4.06,4.06,0,0,0-2.85-.83,4.39,4.39,0,0,0-2.63.85,2.41,2.41,0,0,0-1,2.06,2,2,0,0,0,1,1.73,13.18,13.18,0,0,0,3.92,1.13,18.11,18.11,0,0,1,4.63,1.35,6.3,6.3,0,0,1,2.54,2,5.46,5.46,0,0,1,.93,3,5.77,5.77,0,0,1-2.28,4.91,10.52,10.52,0,0,1-6.39,2.1,11.51,11.51,0,0,1-4.86-.79,8,8,0,0,1-3.4-2.56,6.4,6.4,0,0,1-1.33-3.64l4.81-.19a3.49,3.49,0,0,0,1.43,2.65,5.15,5.15,0,0,0,3.27.82,5,5,0,0,0,2.95-.86A2.31,2.31,0,0,0,530.72,671.32Z"/><path class="cls-5" d="M544.37,648.43l.69,5.32,3.86-.5.47,3.63-3.86.51,1.59,12.2a2.72,2.72,0,0,0,.73,1.75,2.31,2.31,0,0,0,1.84.32,7.46,7.46,0,0,0,1.69-.42l.49,3.8a12.06,12.06,0,0,1-3.17.88q-5.66.74-6.47-5.51L540.62,658l-3.59.47-.48-3.64,3.6-.46-.69-5.32Z"/><path class="cls-4" d="M733.61,517.45a13,13,0,0,0-1.44,1.43c-1.47,1.73-1.8,3.45-1,5.18l11.46,9.8-3.22,3.77L722.66,523.3l3.07-3.6,2,1.51a5.58,5.58,0,0,1,1-5.64,4.6,4.6,0,0,1,1.36-1.15Z"/><path class="cls-4" d="M755.33,519.65a10.26,10.26,0,0,1-7.21,3.87,10.75,10.75,0,0,1-7.91-2.91l-.46-.4a13.33,13.33,0,0,1-3.66-4.8,9.78,9.78,0,0,1-.75-5.35,9.46,9.46,0,0,1,2.24-4.84,8.66,8.66,0,0,1,6.71-3.42q3.78,0,7.78,3.41l1.51,1.3-9.36,11a6.64,6.64,0,0,0,4.47,1.43,5.49,5.49,0,0,0,3.82-2,6.68,6.68,0,0,0,1.51-6l3.68-.37a9.05,9.05,0,0,1,0,4.68A11.21,11.21,0,0,1,755.33,519.65Zm-14.74-11.83a4.21,4.21,0,0,0-1.06,3.43,7.43,7.43,0,0,0,2,3.79l6.14-7.17-.28-.24a6,6,0,0,0-3.72-1.43A4.09,4.09,0,0,0,740.59,507.82Z"/><path class="cls-4" d="M766.69,505.74l-3.22,3.76-23.79-20.35,3.22-3.76Z"/><path class="cls-4" d="M776.82,494.52a10.26,10.26,0,0,1-7.22,3.88,10.81,10.81,0,0,1-7.9-2.91l-.47-.4a13.19,13.19,0,0,1-3.65-4.8,9.62,9.62,0,0,1-.75-5.35,9.41,9.41,0,0,1,2.24-4.85,8.65,8.65,0,0,1,6.7-3.42q3.78,0,7.78,3.42l1.52,1.3-9.37,10.95a6.63,6.63,0,0,0,4.47,1.42,5.52,5.52,0,0,0,3.83-2,6.76,6.76,0,0,0,1.51-6l3.67-.37a8.84,8.84,0,0,1,0,4.68A11,11,0,0,1,776.82,494.52Zm-14.75-11.83a4.19,4.19,0,0,0-1.05,3.43,7.38,7.38,0,0,0,2,3.8l6.13-7.17-.28-.24a6.09,6.09,0,0,0-3.72-1.44A4.15,4.15,0,0,0,762.07,482.69Z"/><path class="cls-4" d="M793.31,474.6a7.83,7.83,0,0,1-1.93-.9,8.34,8.34,0,0,1-6.85,8.89,6.08,6.08,0,0,1-4.93-1.45,6.26,6.26,0,0,1-2.41-5.51q.27-3.21,3.43-6.92l2-2.31-1.1-.94a3.87,3.87,0,0,0-2.71-1,3.76,3.76,0,0,0-2.67,1.55,4.3,4.3,0,0,0-1.16,2.65,2.61,2.61,0,0,0,.93,2.22l-3.22,3.76a5.47,5.47,0,0,1-1.8-3.11,8,8,0,0,1,.25-4.1,11.33,11.33,0,0,1,2.32-4.09,9.2,9.2,0,0,1,5.49-3.43,6.93,6.93,0,0,1,5.69,1.76l7.56,6.46a11.28,11.28,0,0,0,4.15,2.45l.27.23Zm-6.24,1.82a5.69,5.69,0,0,0,1.25-2.56,4.83,4.83,0,0,0-.19-2.73l-3.16-2.7-1.74,2a7.33,7.33,0,0,0-2,3.77,3.11,3.11,0,0,0,1.16,2.81,2.9,2.9,0,0,0,2.34.76A3.74,3.74,0,0,0,787.07,476.42Z"/><path class="cls-4" d="M802.91,454.16a2.27,2.27,0,0,0-2.25-.48,11.75,11.75,0,0,0-3.28,2,19,19,0,0,1-3.76,2.33q-3.78,1.65-6.36-.56a5.87,5.87,0,0,1-2.06-4.93,9.52,9.52,0,0,1,2.51-5.89,9.91,9.91,0,0,1,5.64-3.58,6.19,6.19,0,0,1,5.44,1.44l-3.21,3.77a3.06,3.06,0,0,0-2.5-.74,4.07,4.07,0,0,0-2.55,1.52,4.43,4.43,0,0,0-1.15,2.51,2.37,2.37,0,0,0,.86,2.1,2,2,0,0,0,2,.42,13,13,0,0,0,3.49-2.11,18.43,18.43,0,0,1,4.13-2.49,6.47,6.47,0,0,1,3.22-.49,5.43,5.43,0,0,1,2.82,1.35,5.75,5.75,0,0,1,2.06,5,10.52,10.52,0,0,1-2.8,6.11,11.41,11.41,0,0,1-3.88,3,8,8,0,0,1-4.19.76,6.31,6.31,0,0,1-3.57-1.5l3.13-3.65a3.54,3.54,0,0,0,2.91.75,5.14,5.14,0,0,0,2.82-1.85,5,5,0,0,0,1.37-2.75A2.33,2.33,0,0,0,802.91,454.16Z"/><path class="cls-4" d="M820.05,444a10.26,10.26,0,0,1-7.22,3.88,10.73,10.73,0,0,1-7.9-2.91l-.46-.4a13.11,13.11,0,0,1-3.66-4.8,9.6,9.6,0,0,1-.75-5.35,9.38,9.38,0,0,1,2.24-4.84,8.66,8.66,0,0,1,6.7-3.42c2.52,0,5.12,1.14,7.78,3.41l1.52,1.3-9.36,10.95a6.57,6.57,0,0,0,4.46,1.42,5.47,5.47,0,0,0,3.83-2,6.72,6.72,0,0,0,1.51-6l3.67-.38a8.84,8.84,0,0,1,0,4.68A10.94,10.94,0,0,1,820.05,444ZM805.3,432.14a4.16,4.16,0,0,0-1,3.42,7.38,7.38,0,0,0,2,3.8l6.13-7.17-.28-.24a6,6,0,0,0-3.71-1.43A4.12,4.12,0,0,0,805.3,432.14Z"/><path class="cls-5" d="M328.55,503a13.28,13.28,0,0,1,8.47.67,7.47,7.47,0,0,1,4.2,5.6,7.22,7.22,0,0,1-1.57,6.46l2.38-.22.87,4.4-30.71,6.06-1-4.86,11.16-2.2a7.19,7.19,0,0,1-3.6-5.17,7.56,7.56,0,0,1,1.71-6.8c1.67-1.89,4.26-3.19,7.78-3.88Zm.54,4.94a9.41,9.41,0,0,0-5,2.29,4.19,4.19,0,0,0-1.05,3.94,4.61,4.61,0,0,0,3.64,3.9l8.91-1.76a4.65,4.65,0,0,0,1.94-5,4.17,4.17,0,0,0-2.39-3.18,9.09,9.09,0,0,0-5.4-.27Z"/><path class="cls-5" d="M335.67,484.4a7.67,7.67,0,0,1,3,6A6.88,6.88,0,0,1,337,496a8.94,8.94,0,0,1-5.93,2.27l-14.25,1-.35-4.94,14.18-1c2.8-.2,4.11-1.46,3.95-3.78s-1.15-4-2.93-4.67L315.84,486l-.35-4.94,22-1.56.33,4.65Z"/><path class="cls-5" d="M309.88,474.56a2.65,2.65,0,0,1-1.88-.76,3.21,3.21,0,0,1,.08-4.15,2.8,2.8,0,0,1,3.76.07,2.82,2.82,0,0,1,.7,2.1,2.78,2.78,0,0,1-.78,2.05A2.61,2.61,0,0,1,309.88,474.56Zm27.87-4.74-.09,4.95-22.05-.41.09-4.95Z"/><path class="cls-5" d="M338.38,459.57l-.38,4.94-31.21-2.36.37-4.94Z"/><path class="cls-5" d="M327.45,453.89a13.13,13.13,0,0,1-7.68-3.68,7.6,7.6,0,0,1-2-6.76,7.23,7.23,0,0,1,3.35-5.19L310,436.4l.81-4.89,30.88,5.17-.74,4.43-2.29-.14a7.31,7.31,0,0,1,1.67,6.29,7.55,7.55,0,0,1-4.11,5.67Q332.75,454.78,327.45,453.89Zm1.24-4.81a9.21,9.21,0,0,0,5.39-.41,4.2,4.2,0,0,0,2.47-3.32,4.68,4.68,0,0,0-1.94-4.83L325.32,439a4.61,4.61,0,0,0-3.34,3.9,4.23,4.23,0,0,0,1.27,4A10.18,10.18,0,0,0,328.69,449.08Z"/><path class="cls-5" d="M474.31,292.31a4.48,4.48,0,0,0,2.65-1.9,3.72,3.72,0,0,0,.5-2.93l4.47-1.32a7.27,7.27,0,0,1-.14,4,8.52,8.52,0,0,1-2.33,3.63,9.85,9.85,0,0,1-4,2.25,9.4,9.4,0,0,1-7.89-.81q-3.45-2.1-4.93-7.17l-.15-.49a11.72,11.72,0,0,1,.31-8.49,9.34,9.34,0,0,1,6.18-5,9.07,9.07,0,0,1,6.8.4,8.19,8.19,0,0,1,4.19,5l-4.47,1.32a4.52,4.52,0,0,0-2.13-2.63,4.18,4.18,0,0,0-3.3-.3A4.36,4.36,0,0,0,467,280.7a8.87,8.87,0,0,0,.22,5.44l.22.77a9,9,0,0,0,2.76,4.76A4.33,4.33,0,0,0,474.31,292.31Z"/><path class="cls-5" d="M484,281.61a12.94,12.94,0,0,1,.27-6,9.39,9.39,0,0,1,2.88-4.55,10.15,10.15,0,0,1,5-2.28,9.59,9.59,0,0,1,7.63,1.6,11.32,11.32,0,0,1,4.26,7l.22,1.14a13.11,13.11,0,0,1-.25,5.95,9.22,9.22,0,0,1-2.86,4.53,10.13,10.13,0,0,1-5.07,2.3,9.55,9.55,0,0,1-7.89-1.79,11.93,11.93,0,0,1-4.17-7.69Zm4.95-.42a9,9,0,0,0,2.29,5,4.61,4.61,0,0,0,4.19,1.23,4.54,4.54,0,0,0,3.51-2.59,9.79,9.79,0,0,0,.4-5.89,8.8,8.8,0,0,0-2.31-5,4.6,4.6,0,0,0-4.18-1.27,4.55,4.55,0,0,0-3.47,2.56A9.62,9.62,0,0,0,489,281.19Z"/><path class="cls-5" d="M508,277.75a13.06,13.06,0,0,1,1.94-8.29,7.59,7.59,0,0,1,6.17-3.41,7.2,7.2,0,0,1,5.79,2.16l-.58-11.28,4.94-.25,1.61,31.26-4.48.23L523,285.9a7.29,7.29,0,0,1-5.79,3,7.55,7.55,0,0,1-6.42-2.79Q508.23,283.1,508,277.75Zm5,.18a9.09,9.09,0,0,0,1.56,5.17,4.2,4.2,0,0,0,3.77,1.7,4.71,4.71,0,0,0,4.3-2.94l-.49-9.4a4.61,4.61,0,0,0-4.53-2.42,4.25,4.25,0,0,0-3.61,2.09A10.21,10.21,0,0,0,512.93,277.93Z"/><path class="cls-5" d="M541.83,289a10.25,10.25,0,0,1-7.42-3.46,10.76,10.76,0,0,1-2.41-8.07l0-.61a13.36,13.36,0,0,1,1.66-5.81,9.65,9.65,0,0,1,3.83-3.8,9.49,9.49,0,0,1,5.22-1.11,8.66,8.66,0,0,1,6.76,3.32q2.26,3,1.92,8.28l-.13,2-14.38-.94a6.59,6.59,0,0,0,1.54,4.43,5.47,5.47,0,0,0,3.91,1.85,6.69,6.69,0,0,0,5.71-2.39l2.5,2.72a8.91,8.91,0,0,1-3.73,2.83A11,11,0,0,1,541.83,289Zm.64-18.89a4.18,4.18,0,0,0-3.38,1.2,7.48,7.48,0,0,0-1.85,3.87l9.41.61,0-.37a6,6,0,0,0-1.08-3.83A4.1,4.1,0,0,0,542.47,270.15Z"/><path class="cls-4" d="M759.46,232.79a5.81,5.81,0,0,0-2.27-4.94c-1.52-1.15-4.24-2.37-8.18-3.64a58.31,58.31,0,0,1-9.36-3.77q-9.4-5.08-9.4-13.68a13.29,13.29,0,0,1,2.52-8,16.37,16.37,0,0,1,7.24-5.48,27.27,27.27,0,0,1,10.59-2,24.73,24.73,0,0,1,10.53,2.14,16.84,16.84,0,0,1,7.18,6,15.89,15.89,0,0,1,2.56,8.87H759.5a7.41,7.41,0,0,0-2.39-5.89,9.8,9.8,0,0,0-6.7-2.1,10.45,10.45,0,0,0-6.48,1.76,5.55,5.55,0,0,0-2.31,4.64,5.33,5.33,0,0,0,2.71,4.51,30.53,30.53,0,0,0,8,3.41q9.71,2.91,14.13,7.23a14.41,14.41,0,0,1,4.44,10.76A13.29,13.29,0,0,1,765.45,244Q760,248,750.86,248a28.2,28.2,0,0,1-11.59-2.33,18.32,18.32,0,0,1-8-6.38,16.39,16.39,0,0,1-2.74-9.4H740q0,9.14,10.91,9.13a10.61,10.61,0,0,0,6.33-1.65A5.34,5.34,0,0,0,759.46,232.79Z"/><path class="cls-4" d="M796.71,248q-9,0-14.69-5.53t-5.66-14.74v-1.06a24.74,24.74,0,0,1,2.39-11,17.51,17.51,0,0,1,6.76-7.51,19,19,0,0,1,10-2.63q8.41,0,13.25,5.31t4.83,15v4.47H787.46a10.23,10.23,0,0,0,3.2,6.44,9.72,9.72,0,0,0,6.77,2.42,11.79,11.79,0,0,0,9.88-4.58l5.38,6a16.37,16.37,0,0,1-6.66,5.44A21.91,21.91,0,0,1,796.71,248Zm-1.25-33.68a6.81,6.81,0,0,0-5.29,2.21,11.34,11.34,0,0,0-2.59,6.31h15.23V222a8.2,8.2,0,0,0-2-5.65A7,7,0,0,0,795.46,214.34Z"/><path class="cls-4" d="M836.83,239.19a7.17,7.17,0,0,0,4.92-1.66,5.83,5.83,0,0,0,2-4.44H854a14,14,0,0,1-2.27,7.64,15,15,0,0,1-6.12,5.38A19.23,19.23,0,0,1,837,248q-8.79,0-13.87-5.59T818.08,227v-.72q0-9.47,5-15.11t13.83-5.65q7.69,0,12.34,4.38T854,221.54H843.72a7.49,7.49,0,0,0-2-5.2,7.31,7.31,0,0,0-10.77.79c-1.31,1.86-2,4.87-2,9.05v1.14c0,4.22.65,7.26,1.94,9.1A6.66,6.66,0,0,0,836.83,239.19Z"/></svg>